<?xml version="1.0" standalone="no"?><!DOCTYPE svg PUBLIC "-//W3C//DTD SVG 1.1//EN" "http://www.w3.org/Graphics/SVG/1.1/DTD/svg11.dtd"><svg t="1739184741456" class="icon" viewBox="0 0 1024 1024" version="1.1" xmlns="http://www.w3.org/2000/svg" p-id="7065" xmlns:xlink="http://www.w3.org/1999/xlink" width="200" height="200"><path d="M928 704h-192c-17.066667 0-32 14.933333-32 32s14.933333 32 32 32h136.533333c-76.8 100.266667-196.266667 160-326.4 160-228.266667 0-413.866667-185.6-413.866666-416 0-17.066667-14.933333-32-32-32s-32 14.933333-32 32c0 264.533333 213.333333 480 477.866666 480 134.4 0 260.266667-57.6 349.866667-153.6v89.6c0 17.066667 14.933333 32 32 32s32-14.933333 32-32v-192c0-17.066667-14.933333-32-32-32zM546.133333 32C407.466667 32 281.6 91.733333 192 189.866667V96C192 78.933333 177.066667 64 160 64S128 78.933333 128 96v192c0 17.066667 14.933333 32 32 32h192c17.066667 0 32-14.933333 32-32s-14.933333-32-32-32h-132.266667c76.8-100.266667 196.266667-160 326.4-160C774.4 96 960 281.6 960 512c0 17.066667 14.933333 32 32 32S1024 529.066667 1024 512C1024 247.466667 810.666667 32 546.133333 32z" fill="#212121" p-id="7066"></path></svg>